HIERARCHY
ROOT pelvis
{
  OFFSET 0 100 0
  CHANNELS 6 Xposition Yposition Zposition Zrotation Xrotation Yrotation
  JOINT pelvis_right_femur
  {
    OFFSET -10.78128 -3.44521 -0.5502486
    CHANNELS 3 Zrotation Xrotation Yrotation
    JOINT right_femur_tibia
    {
      OFFSET -0.8047443 -44.0398 -0.1307829
      CHANNELS 3 Zrotation Xrotation Yrotation
      JOINT right_tibia_foot
      {
        OFFSET 3.006224 -47.83518 -5
        CHANNELS 3 Zrotation Xrotation Yrotation
        End Site
        {
          OFFSET 0 -5 15
        }
      }
    }
  }
  JOINT pelvis_left_femur
  {
    OFFSET 10.78128 -3.44521 -0.5502486
    CHANNELS 3 Zrotation Xrotation Yrotation
    JOINT left_femur_tibia
    {
      OFFSET 0.8047443 -44.0398 -0.1307829
      CHANNELS 3 Zrotation Xrotation Yrotation
      JOINT left_tibia_foot
      {
        OFFSET -4.370144 -48.10324 -4.275266
        CHANNELS 3 Zrotation Xrotation Yrotation
        End Site
        {
          OFFSET 0 -5 15
        }
      }
    }
  }
  JOINT pelvis_spine1
  {
    OFFSET 0 6.468898 -3.129235
    CHANNELS 3 Zrotation Xrotation Yrotation
    JOINT spine1
    {
      OFFSET 0 23.15396 4.99043
      CHANNELS 3 Zrotation Xrotation Yrotation
      JOINT spine2
      {
        OFFSET 0 20.79997 -5.064912
        CHANNELS 3 Zrotation Xrotation Yrotation
        JOINT neck
        {
          OFFSET 0 14.38658 9.616178
          CHANNELS 3 Zrotation Xrotation Yrotation
          End Site
          {
            OFFSET 0 20 0
          }
        }
      }
      JOINT right_manubrium
      {
        OFFSET -5.722621 16.35077 3.967754
        CHANNELS 3 Zrotation Xrotation Yrotation
        JOINT right_clavicle
        {
          OFFSET -13.16364 1.694482 -4.693211
          CHANNELS 3 Zrotation Xrotation Yrotation
          JOINT right_humerus
          {
            OFFSET -28.5034 -0.3100689 -2.792744
            CHANNELS 3 Zrotation Xrotation Yrotation
            JOINT right_radius
            {
              OFFSET -25.15693 0.02248979 -1.271978
              CHANNELS 3 Zrotation Xrotation Yrotation
              End Site
              {
                OFFSET -15 0 0
              }
            }
          }
        }
      }
      JOINT left_manubrium
      {
        OFFSET 5.722621 16.35077 3.967754
        CHANNELS 3 Zrotation Xrotation Yrotation
        JOINT left_clavicle
        {
          OFFSET 13.16364 1.694482 -4.693211
          CHANNELS 3 Zrotation Xrotation Yrotation
          JOINT left_humerus
          {
            OFFSET 29.39168 -1.063119 -2.237045
            CHANNELS 3 Zrotation Xrotation Yrotation
            JOINT left_radius
            {
              OFFSET 24.59957 -0.9528479 0.9047498
              CHANNELS 3 Zrotation Xrotation Yrotation
              End Site
              {
                OFFSET 15 -0 -0
              }
            }
          }
        }
      }
    }
  }
}
MOTION
Frames: 15
Frame Time: 0.0416666666667
0 103.5113 0 0.7100638 -1.144885 0.1170052 3.242223 -14.06554 7.17255 -0 36.14908 -0 -7.852155 -14.12419 -1.896927 -7.034146 3.928612 -21.8514 -0 4.28312 -0 8.130933 -16.81836 25.94366 -1.703168 -2.361501 4.576908 2.854817 9.762552 -7.662642 0.679625 21.45719 7.039901 4.140066 -26.73522 8.208674 5.128315 -20.16061 11.43898 86.50525 36.71465 -18.94924 -0 0 13.61828 -6.302754 6.386712 5.110195 6.191726 -21.77832 -1.430595 -95.34375 25.56855 25.12109 0 0 -16.37002 10.21448 17.12375 2.867681
0.5025494 103.3949 1.190004 0.7680923 -1.168612 0.2584945 3.227661 -15.12136 7.497084 -0 38.27028 -0 -7.808326 -13.69331 -2.091949 -7.267687 5.288357 -22.43029 -0 5.075535 -0 8.338098 -17.03163 26.14401 -1.732325 -2.364417 4.596012 2.868668 9.648168 -7.590866 0.6923183 21.50463 7.045071 4.149302 -26.87692 8.266947 5.213643 -20.21 11.39591 86.23989 36.92947 -18.67182 -0 0 13.77841 -5.929553 6.166494 5.059833 6.181108 -21.58901 -1.275259 -95.77685 25.87042 25.57741 0 0 -15.91758 10.12715 17.2997 3.041656
0.8699591 103.1025 3.069807 0.5876466 -1.11444 0.5280302 3.34184 -20.22007 6.234657 -0 34.86301 -0 -7.397408 -10.82051 -2.648338 -6.769455 9.978602 -21.02035 -0 5.21262 -0 6.924619 -18.65172 24.15415 -1.752132 -2.270575 4.215705 2.954902 9.600301 -7.973203 0.7182795 21.45131 7.193165 4.14165 -26.5298 8.385141 5.263683 -19.30268 11.33565 87.36619 36.85696 -20.39571 -0 0 12.41297 -6.385255 6.818365 4.79342 6.389041 -22.11726 -1.503145 -94.08656 26.16099 22.96525 0 0 -18.25881 9.915441 16.81427 3.230147
1.140271 102.5555 5.321306 0.3627338 -0.756203 0.8207316 3.61936 -23.7362 5.334934 -0 30.16876 -0 -7.498457 -9.843213 -2.838163 -6.316598 12.5816 -20.10263 -0 4.500683 -0 6.268869 -19.69174 22.90483 -1.776863 -2.221666 3.964825 3.031519 9.514009 -8.195021 0.7389649 21.44627 7.288519 4.145238 -26.41697 8.491489 5.33294 -18.74952 11.27385 87.99881 36.91051 -21.40486 -0 0 11.57498 -6.410052 7.066306 4.565262 6.525048 -22.38801 -1.571074 -93.22069 26.46107 21.49775 0 0 -19.53795 9.822854 16.63599 3.334633
1.323952 101.6915 8.022746 0.1198812 -0.460677 1.124193 3.839924 -26.64854 4.302115 -0 24.73228 -0 -7.576437 -8.958863 -2.969598 -5.815358 14.55264 -18.88102 -0 3.869996 -0 5.396365 -20.53323 21.49494 -1.790173 -2.167028 3.760121 3.075696 9.476365 -8.395067 0.7557369 21.42145 7.370115 4.13943 -26.2278 8.561269 5.367542 -18.25278 11.23584 88.59257 36.86497 -22.31746 -0 0 10.84541 -6.646231 7.4196 4.424664 6.635852 -22.65578 -1.682578 -92.32463 26.60481 20.08094 0 0 -20.78394 9.680739 16.37314 3.474672
1.443031 100.5385 11.27988 -0.08031465 -0.4135447 1.438454 3.905358 -28.56514 3.20921 -0 19.8022 -0 -7.463408 -7.849315 -3.118405 -5.355901 15.85408 -17.35101 -0 3.969288 -0 4.171096 -21.03051 19.93064 -1.801442 -2.120626 3.626402 3.096185 9.446223 -8.526305 0.7699822 21.40161 7.429218 4.131743 -26.06684 8.610688 5.396476 -17.89748 11.20829 88.98433 36.82712 -22.9307 -0 0 10.3591 -6.865879 7.709961 4.349099 6.708327 -22.8237 -1.759563 -91.68952 26.71001 19.08094 0 0 -21.6578 9.518212 16.15592 3.648664
1.516907 99.17369 15.2038 -0.2240234 -0.6542617 1.76457 3.845038 -29.59988 2.105509 -0 15.70983 -0 -7.131508 -6.394214 -3.341904 -4.959026 16.68677 -15.53924 -0 5.207326 -0 2.569729 -21.15019 18.20203 -1.806123 -2.076213 3.549352 3.090278 9.443732 -8.613604 0.7809385 21.375 7.470292 4.118973 -25.88525 8.632416 5.404968 -17.64015 11.19763 89.25626 36.75042 -23.34956 -0 0 10.04377 -7.17589 8.01604 4.347494 6.750022 -22.94203 -1.840944 -91.17233 26.72962 18.31851 0 0 -22.33057 9.327303 15.92288 3.849952
1.562733 97.71801 19.86453 -0.3035116 -1.177603 2.09637 3.738968 -29.77704 1.111044 -0 12.66948 -0 -6.619753 -4.683395 -3.66382 -4.634726 17.09083 -13.55736 -0 7.919219 -0 0.6922198 -20.82123 16.41137 -1.80704 -2.033009 3.518528 3.06348 9.457874 -8.662397 0.7900125 21.34501 7.497418 4.10246 -25.6919 8.634914 5.401165 -17.4621 11.19832 89.4202 36.65412 -23.6013 -0 0 9.872254 -7.544711 8.326731 4.404199 6.766711 -23.01148 -1.919008 -90.76655 26.70015 17.76505 0 0 -22.82419 9.106897 15.68274 4.08452
1.592621 96.33132 25.2672 -0.3181504 -1.95216 2.414241 3.693806 -29.0957 0.3731662 -0 10.77627 -0 -6.005438 -2.914795 -4.085232 -4.375624 17.02992 -11.55143 -0 12.40556 -0 -1.300385 -19.96805 14.71324 -1.802991 -1.98925 3.530324 3.01484 9.493814 -8.678679 0.7971328 21.30887 7.511529 4.081305 -25.4738 8.616298 5.380726 -17.35236 11.21192 89.49719 36.52487 -23.71191 -0 0 9.826362 -8.001068 8.661563 4.522962 6.760184 -23.04459 -2.003873 -90.43603 26.6088 17.37507 0 0 -23.18149 8.855118 15.41927 4.350394
1.611157 95.20514 31.32702 -0.2706781 -2.930043 2.681249 3.812517 -27.48902 0.05454291 -0 10.11967 -0 -5.392576 -1.372769 -4.577567 -4.163548 16.37672 -9.708808 -0 18.89038 -0 -3.195123 -18.52193 13.3168 -1.794159 -1.943089 3.589543 2.940611 9.55193 -8.658073 0.8028006 21.26591 7.512059 4.054546 -25.22334 8.575515 5.343255 -17.31398 11.2389 89.47658 36.36018 -23.6666 -0 0 9.919814 -8.562686 9.029395 4.713874 6.727914 -23.03421 -2.095595 -90.18439 26.45742 17.15959 0 0 -23.39237 8.557053 15.12376 4.665319
1.61343 94.53735 37.85253 -0.1717424 -4.034314 2.843341 4.15655 -24.86375 0.2828594 -0 10.72318 -0 -4.908846 -0.4035306 -5.071622 -3.969622 14.93984 -8.242673 -0 27.31333 -0 -4.749416 -16.47017 12.45363 -1.779629 -1.892751 3.712226 2.831539 9.637406 -8.587062 0.8070408 21.2144 7.494944 4.020247 -24.92837 8.506441 5.284551 -17.36889 11.28267 89.32429 36.15012 -23.41223 -0 0 10.20051 -9.266119 9.441518 5.002611 6.661367 -22.96234 -2.194592 -90.03813 26.23462 17.17655 0 0 -23.40626 8.190632 14.78351 5.05461
1.587943 94.47491 44.5645 -0.04534183 -5.148141 2.838469 4.694117 -21.17521 1.057304 -0 12.3839 -0 -4.675892 -0.3280725 -5.457546 -3.756388 12.5222 -7.3186 -0 36.9787 -0 -5.759325 -13.92562 12.29145 -1.758996 -1.83622 3.924244 2.674102 9.754178 -8.441813 0.8101048 21.15343 7.453821 3.976062 -24.57752 8.401529 5.201383 -17.55497 11.34703 88.97871 35.88709 -22.85599 -0 0 10.75005 -10.15047 9.903389 5.425899 6.547013 -22.79407 -2.295066 -90.05596 25.93365 17.53618 0 0 -23.12388 7.722133 14.38733 5.559876
1.528413 95.03543 51.17821 0.07158036 -6.126771 2.617018 5.280464 -16.52597 2.163793 -0 14.50099 -0 -4.743323 -1.28113 -5.614369 -3.47858 9.022215 -6.928293 -0 46.31863 -0 -6.161579 -11.17199 12.81541 -1.732482 -1.771809 4.254499 2.4539 9.903664 -8.194096 0.8124226 21.08346 7.381505 3.919994 -24.16359 8.253852 5.09211 -17.91666 11.43498 88.36955 35.56439 -21.89061 -0 0 11.66264 -11.24709 10.41034 6.022507 6.370001 -22.48656 -2.386114 -90.31335 25.55202 18.37161 0 0 -22.42169 7.116809 13.92801 6.226275
1.449184 96.06178 57.5203 0.1420387 -6.842063 2.164766 5.728484 -11.20627 3.221171 -0 16.15303 -0 -5.039029 -3.09951 -5.459342 -3.078627 4.522876 -6.832768 -0 53.24468 -0 -6.073207 -8.607762 13.79514 -1.702006 -1.698547 4.717487 2.164161 10.07933 -7.826183 0.8149903 21.0075 7.274841 3.851927 -23.69022 8.063717 4.960719 -18.4772 11.54492 87.45929 35.18054 -20.4566 -0 0 12.99097 -12.55328 10.94314 6.809588 6.12339 -22.00903 -2.453101 -90.8645 25.1007 19.76293 0 0 -21.21707 6.355551 13.40725 7.083225
1.388304 97.26348 63.58409 0.1477804 -7.230998 1.510271 5.930331 -5.610075 3.885628 -0 16.54277 -0 -5.411802 -5.415582 -4.97834 -2.493419 -0.7084523 -6.697139 -0 56.13359 -0 -5.697807 -6.581095 14.91872 -1.67113 -1.616703 5.294296 1.814652 10.26558 -7.349282 0.8193102 20.9308 7.139538 3.774706 -23.17444 7.843323 4.817645 -19.208 11.66863 86.29099 34.74146 -18.61383 -0 0 14.68392 -14.01621 11.47311 7.758983 5.817779 -21.37058 -2.485245 -91.69049 24.60463 21.64586 0 0 -19.55211 5.455336 12.83714 8.117602
